# xmcd CD database file
#
# Track frame offsets:
#	150
#	13906
#	24734
#	39365
#	52273
#	62749
#	79070
#	96791
#	113906
#	133645
#	148146
#	160970
#	173357
#	186083
#
# Disc length: 2674 seconds
#
# Revision: 0
# Processed by: cddbd v1.4PL0 Copyright (c) Steve Scherf et al.
# Submitted via: CDex 1.50beta10
#
DISCID=be0a700e
DTITLE=Sarah Vaughan - Cocktail Hour Disc 2
DYEAR=2000
DGENRE=Jazz
TTITLE0=Misty
TTITLE1=Seperate Ways
TTITLE2=I've Got The World On A String
TTITLE3=Lord's Prayer
TTITLE4=When Your Lover Has Gone
TTITLE5='Round Midnight
TTITLE6=When Sunny Gets Blue
TTITLE7=Sophisticated Lady
TTITLE8=Star Eyes
TTITLE9=It's You or No One
TTITLE10=Love Me Or Leave Me
TTITLE11=Sometimes I Feel Like A Motherless Child
TTITLE12=What A Difference A Day Makes
TTITLE13=Lover Man
EXTD=YEAR: 2000
EXTT0=
EXTT1=
EXTT2=
EXTT3=
EXTT4=
EXTT5=
EXTT6=
EXTT7=
EXTT8=
EXTT9=
EXTT10=
EXTT11=
EXTT12=
EXTT13=
PLAYORDER=
